<svg width="142" height="46" viewBox="0 0 142 46" fill="none" xmlns="http://www.w3.org/2000/svg">
<g clip-path="url(#clip0_916_405)">
<path d="M16.0765 10.6575V11.5539C14.762 10.9052 13.3318 10.5229 11.8686 10.4291C10.4053 10.3352 8.93793 10.5317 7.55109 11.0071C6.16426 11.4826 4.88541 12.2276 3.78837 13.1993C2.69132 14.1709 1.79779 15.3499 1.15932 16.6682L1.14647 16.6913C0.420993 18.1914 0.0463413 19.8366 0.050821 21.5025C0.0515701 23.3879 0.533457 25.2421 1.45097 26.8899C2.36849 28.5377 3.69136 29.9248 5.2947 30.9202C6.89804 31.9156 8.72894 32.4865 10.6145 32.5789C12.5001 32.6713 14.3782 32.2822 16.0714 31.4484V34.947C16.1088 35.6099 16.0103 36.2735 15.7819 36.8971C15.5536 37.5208 15.2003 38.0913 14.7436 38.5738C14.2869 39.0563 13.7363 39.4407 13.1257 39.7034C12.5151 39.9661 11.8573 40.1016 11.1924 40.1016C10.5276 40.1016 9.86975 39.9661 9.25915 39.7034C8.64854 39.4407 8.09805 39.0563 7.64133 38.5738C7.1846 38.0913 6.83128 37.5208 6.60296 36.8971C6.37465 36.2735 6.27615 35.6099 6.31349 34.947V34.5129H0.13055V34.947C0.125435 37.8788 1.28665 40.6925 3.35875 42.7692C5.43085 44.8459 8.24409 46.0154 11.1796 46.0206C14.1151 46.0257 16.9324 44.8659 19.0117 42.7964C21.0911 40.727 22.2621 37.9173 22.2672 34.9855V10.6575H16.0765ZM6.51667 19.2805C7.02401 18.2343 7.87163 17.3909 8.92103 16.888C9.97042 16.3852 11.1595 16.2526 12.2941 16.5121C13.4287 16.7715 14.4416 17.4076 15.1674 18.3163C15.8932 19.2251 16.289 20.3528 16.29 21.5153C16.2922 22.2076 16.1521 22.893 15.8785 23.5292C15.4936 24.425 14.8615 25.1929 14.0559 25.7433C13.2503 26.2937 12.3046 26.6038 11.3292 26.6375C10.3537 26.6712 9.38881 26.427 8.54712 25.9334C7.70544 25.4399 7.02172 24.7174 6.57582 23.8502L6.55781 23.8143C6.20618 23.1138 6.01967 22.3422 6.01253 21.5586C6.0054 20.775 6.17785 20.0002 6.51667 19.2934V19.2805Z" fill="#FFD100"/>
<path d="M38.3048 10.7627V17.0303L37.6875 16.7477C37.136 16.5385 36.5489 16.4391 35.9592 16.4549C33.2818 16.4549 31.6203 18.2529 31.6203 21.1787V32.3139H25.4297V10.6214H31.6203V12.2679C32.6491 11.0606 34.2154 10.3696 36.0415 10.3696C36.7132 10.3369 37.3851 10.431 38.0219 10.6471L38.3048 10.7627Z" fill="#FFD100"/>
<path d="M84.6533 19.3806V32.3036H78.4652V20.629C78.4652 17.6621 77.349 16.2776 74.9545 16.2776C72.488 16.2776 71.0735 17.8651 71.0735 20.629V32.3036H64.8828V10.6214H71.0709V11.9982C72.0508 11.2096 73.6634 10.3696 76.0733 10.3696C81.4461 10.3696 84.6533 13.7372 84.6533 19.3806Z" fill="#FFD100"/>
<path d="M134.911 10.621V12.0466C133.343 10.9332 131.46 10.3475 129.536 10.3744C128.098 10.352 126.671 10.6161 125.337 11.1511C124.003 11.686 122.789 12.4812 121.766 13.4902C119.744 15.5194 118.631 18.3527 118.631 21.4531C118.631 24.5535 119.744 27.3996 121.766 29.4314C122.789 30.4395 124.003 31.234 125.337 31.7686C126.671 32.3031 128.099 32.5669 129.536 32.5447C131.251 32.5447 133.425 32.0309 134.911 30.8725V32.2955H141.143V10.621H134.911ZM134.857 22.4934C134.789 22.831 134.687 23.1607 134.551 23.4772C134.167 24.3737 133.534 25.1424 132.729 25.6933C131.923 26.2442 130.977 26.5546 130.001 26.5883C129.025 26.622 128.059 26.3775 127.217 25.8834C126.375 25.3894 125.691 24.6661 125.246 23.7983L125.225 23.7598C124.874 23.0577 124.688 22.2844 124.682 21.4994C124.676 20.7143 124.851 19.9384 125.192 19.2312C125.624 18.3389 126.306 17.5906 127.154 17.0765C128.003 16.5623 128.982 16.3044 129.974 16.3337C130.966 16.363 131.929 16.6784 132.745 17.2417C133.562 17.8051 134.198 18.5923 134.577 19.5086C134.833 20.1275 134.964 20.791 134.963 21.4608C134.963 21.8077 134.927 22.1537 134.857 22.4934Z" fill="#FFD100"/>
<path d="M55.5981 10.6219V12.0475C54.0299 10.9335 52.147 10.3478 50.2227 10.3753C48.7853 10.3531 47.3579 10.6172 46.0239 11.1522C44.6898 11.6872 43.4758 12.4823 42.4529 13.4911C40.434 15.5204 39.3203 18.3536 39.3203 21.4541C39.3203 24.5545 40.434 27.4006 42.4529 29.4324C43.4764 30.4403 44.6905 31.2346 46.0245 31.7691C47.3584 32.3036 48.7856 32.5676 50.2227 32.5456C51.9382 32.5456 54.1115 32.0319 55.5981 30.8734V32.2965H61.8325V10.6219H55.5981ZM55.5492 22.4944C55.4784 22.8318 55.3741 23.1613 55.238 23.4782C54.8531 24.374 54.221 25.1419 53.4154 25.6923C52.6099 26.2427 51.6641 26.5529 50.6887 26.5865C49.7132 26.6202 48.7483 26.376 47.9066 25.8825C47.065 25.3889 46.3812 24.6664 45.9353 23.7993L45.9148 23.7607C45.5635 23.0584 45.3781 22.2851 45.3727 21.5C45.3674 20.715 45.5423 19.9392 45.8839 19.2321C46.391 18.1863 47.2382 17.3431 48.2871 16.8402C49.336 16.3372 50.5246 16.2043 51.6589 16.4631C52.7931 16.7218 53.8061 17.357 54.5323 18.2649C55.2585 19.1728 55.655 20.2997 55.6572 21.4618C55.6551 21.8087 55.6189 22.1545 55.5492 22.4944Z" fill="#FFD100"/>
<path d="M112.112 23.0428L117.585 25.3546L117.416 25.7553C116.419 28.1151 114.634 30.0567 112.364 31.2494C110.095 32.442 107.481 32.8119 104.97 32.2961C102.458 31.7802 100.203 30.4105 98.5885 28.4203C96.9744 26.4301 96.1011 23.9426 96.1174 21.3815C96.1337 18.8203 97.0386 16.3441 98.678 14.3746C100.317 12.4051 102.59 11.0641 105.108 10.5803C107.626 10.0964 110.235 10.4995 112.489 11.7209C114.743 12.9423 116.503 14.9064 117.47 17.2787L117.632 17.682L112.133 19.9167L111.968 19.5134C111.52 18.4127 110.703 17.5013 109.657 16.9346C108.611 16.3678 107.401 16.1807 106.232 16.4051C105.064 16.6296 104.009 17.2517 103.249 18.1654C102.488 19.0792 102.068 20.2282 102.06 21.4165C102.052 22.6049 102.457 23.7592 103.206 24.6828C103.955 25.6064 105.001 26.2422 106.166 26.4819C107.332 26.7215 108.545 26.5502 109.598 25.9972C110.651 25.4441 111.48 24.5434 111.942 23.4487L112.112 23.0428Z" fill="#FFD100"/>
<path d="M93.8238 10.6191H87.6357V32.304H93.8238V10.6191Z" fill="#FFD100"/>
<path d="M93.8238 0H87.6357V6.18025H93.8238V0Z" fill="#FFD100"/>
</g>
<defs>
<clipPath id="clip0_916_405">
<rect width="141.086" height="46" fill="white" transform="translate(0.0546875)"/>
</clipPath>
</defs>
</svg>
