<?xml version="1.0" encoding="utf-8"?>
<!-- Generator: Adobe Illustrator 19.2.1, SVG Export Plug-In . SVG Version: 6.00 Build 0)  -->
<!DOCTYPE svg PUBLIC "-//W3C//DTD SVG 1.1//EN" "http://www.w3.org/Graphics/SVG/1.1/DTD/svg11.dtd">
<svg version="1.1" id="Layer_1" xmlns="http://www.w3.org/2000/svg" xmlns:xlink="http://www.w3.org/1999/xlink" x="0px" y="0px"
	 viewBox="0 0 1509.572 650.215" enable-background="new 0 0 1509.572 650.215" xml:space="preserve">
<path fill="#FFFFFF" d="M172.829,0h1166.599c87.313,0,170.144,59.466,170.144,146.145l-2.686,358.284
	c-0.181,86.554-82.909,145.786-170.144,145.786h-1166.6C82.825,650.215,0,590.742,0,504.038l2.712-358.253
	C2.863,59.207,85.582,0,172.829,0"/>
<path fill="#00A24B" d="M1472.852,352.312v151.852c0,61.794-60.951,111.907-136.098,111.907H170.142
	c-75.17,0-136.086-50.113-136.086-111.907V352.312H1472.852"/>
<path fill="#00A24B" d="M36.743,321.844V146.006c0-61.767,60.929-111.881,136.086-111.881h1166.6
	c75.197,0,136.11,50.114,136.11,111.881v175.889L36.743,321.844"/>
<polygon fill="#FFFFFF" points="1026.738,389.294 927.268,389.294 927.268,567.345 1026.738,567.345 1026.738,537.93 
	965.172,537.93 965.172,490.706 1025.161,490.706 1025.161,461.304 965.172,461.304 965.172,418.722 1026.738,418.722 "/>
<path fill="#FFFFFF" d="M1154.107,406.864c-11.818-11.693-35.746-19.247-52.963-19.247c-32.67,0-56.597,23.132-56.597,51.777
	c0,26.816,18.264,38.067,43.227,47.225c15.148,5.272,33.664,10.267,33.664,28.178c0,13.307-9.536,24.95-24.924,24.95
	c-16.208,0-29.855-11.908-34.977-25.165l-24.469,21.279c13.382,19.954,32.958,33.716,59.686,33.716
	c39.631,0,63.798-24.533,63.798-59.156c0-57.959-76.891-45.838-76.891-74.924c0-11.239,11.554-19.475,23.651-19.475
	c12.575,0,21.847,5.5,29.073,14.189L1154.107,406.864"/>
<polygon fill="#FFFFFF" points="872.451,567.13 910.517,567.13 881.456,389.749 854.237,389.749 808.437,503.635 760.606,389.749 
	733.868,389.749 701.217,567.13 739.253,567.13 756.521,459.879 799.444,569.427 812.55,569.427 856.494,459.879 "/>
<path fill="#FFFFFF" d="M605.323,569.413c56.603,0,95.944-41.725,95.944-91.245c0-48.348-39.341-90.741-95.944-90.741
	c-56.545,0-95.873,42.393-95.873,90.741C509.45,527.688,548.778,569.413,605.323,569.413 M605.323,420.651
	c33.212,0,56.874,28.204,56.874,56.167c0,26.11-24.684,59.359-56.874,59.359c-32.119,0-56.79-33.249-56.79-59.359
	C548.533,448.855,572.182,420.651,605.323,420.651"/>
<polygon fill="#FFFFFF" points="377.676,455.401 377.676,382.785 337.352,382.785 337.352,567.131 377.676,567.131 377.676,484.727 
	452.335,484.727 452.335,567.131 492.661,567.131 492.661,382.785 452.335,382.785 452.335,455.401 "/>
<polygon fill="#FFFFFF" points="440.434,87.871 340.971,87.871 340.971,265.903 440.434,265.903 440.434,236.496 378.868,236.496 
	378.868,189.27 438.863,189.27 438.863,159.862 378.868,159.862 378.868,117.279 440.434,117.279 "/>
<polygon fill="#FFFFFF" points="1235.779,186.382 1235.779,265.682 1273.595,265.682 1273.595,186.382 1335.928,88.427 
	1292.84,88.427 1253.527,152.925 1217.061,88.427 1173.027,88.427 "/>
<path fill="#FFFFFF" d="M1168.865,229.235l14.946,36.435h40.35l-73.548-177.376h-29.301l-75.63,177.376h39.871l15.931-36.435
	H1168.865z M1158.346,201.764h-46.039l21.368-62.815L1158.346,201.764z"/>
<polygon fill="#FFFFFF" points="918.274,153.946 918.274,81.318 877.937,81.318 877.937,265.669 918.274,265.669 918.274,183.304 
	992.883,183.304 992.883,265.669 1033.22,265.669 1033.22,81.318 992.883,81.318 992.883,153.946 "/>
<polygon fill="#FFFFFF" points="666.55,157.542 666.55,88.647 628.753,88.647 628.753,265.67 666.55,265.67 666.55,185.411 
	736.515,185.411 736.515,265.67 774.305,265.67 774.305,88.647 736.515,88.647 736.515,157.542 "/>
<polygon fill="#FFFFFF" points="575.852,118.844 614.935,118.844 614.935,88.66 498.961,88.66 498.961,118.844 538.043,118.844 
	538.043,265.67 575.852,265.67 "/>
<rect x="452.537" y="88.661" fill="#FFFFFF" width="37.821" height="177.022"/>
<polygon fill="#FFFFFF" points="213.746,159.074 213.179,81.331 172.854,81.331 172.854,265.682 213.179,265.682 213.179,182.788 
	279.828,265.682 331.695,265.682 248.836,166.415 327.292,81.331 277.653,81.331 "/>
</svg>
