<svg xmlns="http://www.w3.org/2000/svg" width="254.356" height="44.52" xmlns:v="https://vecta.io/nano"><defs><linearGradient id="A" x1="1.004" y1=".484" x2=".004" y2=".484"><stop offset="0" stop-color="#d74813"/><stop offset="1" stop-color="#873414"/></linearGradient><linearGradient id="B" x1=".004" y1=".484" x2="1.004" y2=".484"><stop offset="0" stop-color="#388e33"/><stop offset="1" stop-color="#2b5e1d"/></linearGradient><linearGradient id="C" x1=".004" y1=".492" x2="1.004" y2=".492"><stop offset=".005" stop-color="#54c7f5"/><stop offset=".222" stop-color="#3abbf2"/><stop offset=".544" stop-color="#1aadef"/><stop offset=".815" stop-color="#07a4ed"/><stop offset="1" stop-color="#00a1ed"/></linearGradient><linearGradient id="D" x1=".507" y1="-.008" x2=".507" y2=".992"><stop offset="0" stop-color="#005b94"/><stop offset="1" stop-color="#003b61"/></linearGradient><linearGradient id="E" x1=".004" y1=".49" x2="1.004" y2=".49"><stop offset="0" stop-color="#fdab72"/><stop offset=".075" stop-color="#fb9e5f"/><stop offset=".217" stop-color="#f88a43"/><stop offset=".37" stop-color="#f57b2d"/><stop offset=".537" stop-color="#f4701e"/><stop offset=".729" stop-color="#f36914"/><stop offset="1" stop-color="#f36812"/></linearGradient><linearGradient id="F" x1=".517" y1=".959" x2=".473" y2="-.009"><stop offset="0" stop-color="#9ac888"/><stop offset="1" stop-color="#388e33"/></linearGradient></defs><path d="M25.702-.004l12.85 22.26 12.853 22.26H0l12.852-22.26z" fill="#fff"/><path d="M26.409 30.085v14.434h25z" fill="url(#A)"/><path d="M25 30.085L0 44.519h25z" fill="url(#B)"/><path d="M25.702 28.867l12.5-7.218L25.702 0l-12.5 21.65z" fill="url(#C)"/><path d="M25.703 28.865l12.5-7.217-12.5-21.652z" fill="url(#D)"/><path d="M26.409 30.085l25 14.434-12.5-21.65z" fill="url(#E)"/><path d="M24.997 30.085l-12.499-7.211-12.5 21.65z" fill="url(#F)"/><g fill="#002c51"><path d="M94.773 28.031c0 4.5-4.308 7.354-11.073 7.36l-21.476.022L62.2 8.474l19.933-.02c6.777 0 11.082 2.764 11.09 6.994 0 3.04-2.266 5.7-6.35 5.971 4.316.27 7.896 2.534 7.9 6.612zm-23.33-9.021l9.159-.008c1.926 0 3.314-.58 3.3-2.273 0-1.655-1.382-2.227-3.307-2.227l-9.159.008zm13.708 7.877c0-1.731-1.31-2.423-3.428-2.423l-10.272.008v4.887l10.279-.008c2.111 0 3.422-.736 3.422-2.464zm14.3 8.491L99.43 8.442h9.389l.024 26.932zm49.211-26.976l.022 26.935-8.236.01-15.636-16.108.013 16.119-9.042.008-.021-26.934 9.927-.011 13.906 14.61-.016-14.618zm37.153 18.209c0 5.812-5.186 9.586-15.155 9.595-7 0-13.08-1.837-17.439-5.1l4.657-5.4a21.73 21.73 0 0 0 12.932 3.877c3.848 0 5.732-.662 5.732-2.006 0-1.307-1.546-1.769-6.54-2.186-8.28-.727-15.628-2.6-15.635-8.759 0-5.89 6.42-9.124 15.155-9.133 5.657-.01 11.235 1.3 15.129 3.871l-4.465 5.469a18.85 18.85 0 0 0-10.659-2.8c-2.731 0-5.89.353-5.884 1.811 0 1.308 2.424 1.577 6.772 1.921 9.007.727 15.395 2.452 15.4 8.84zm26.803 8.673l-7.816-10.535-4.961 4.7.006 5.845-9.388.008-.024-26.93 9.389-.012.011 11.39 11.685-11.4 11.351-.01-11.46 10.829 12.141 16.109z"/><path d="M230.612 8.331l6.743 10.694 6.687-10.7 10.314-.007-12.34 17.975.011 8.966-9.392.008-.005-8.971-12.366-17.955z"/></g></svg>